<svg width="120" height="120" viewBox="0 0 120 120" fill="none" xmlns="http://www.w3.org/2000/svg">
<path d="M24.3 2.3C21.9 7.6 20.8 18.3 22 25C22.6 28.4 23 31.3 22.8 31.4C18.6 34.2 12 39.3 10.6 40.9C8.7 43 8.7 43 12.6 43H16.5L8.2 51.3L0 59.5L30 89.5L60 119.5L89.7 89.8L119.5 60L113.7 54.2L108 48.4V40.3C108 30.4 105.3 21 101 15.7C97.3 11.3 96 11 96 14.7C96 16.3 95.1 19 93.9 20.9L91.8 24.4L88.7 20.6C85.8 17.3 80.4 13 78.9 13C78.6 13 78.5 14.5 78.8 16.2C79.2 19.3 78.7 19 69.4 9.8L59.5 -1.78069e-06L48.9 10.6L38.3 21.2L36.6 16.4C35.7 13.8 35 10.6 35 9.3C35 5.5 33.3 6.7 32 11.5C31.3 14.2 31 18.3 31.3 21.5C31.6 24.6 31.5 26.8 31.1 26.5C29.7 25.7 26.8 13.8 26.1 6.5C25.5 -1.78069e-06 25.4 -0.300002 24.3 2.3ZM76.2 21.1C74.8 22.5 64.5 25 60.3 25C58 25 54.2 24.3 52 23.4C48.8 22.1 47.1 22 44 22.8C41.8 23.3 40 23.5 40 23.2C40 22.8 44.4 18.1 49.7 12.8L59.5 3L68.2 11.7C73 16.5 76.6 20.7 76.2 21.1ZM28.8 27C29.8 29.5 32 33 33.5 34.8C36.2 38 36.2 38.1 34.4 39.5C31.7 41.5 30.8 41 27.7 35.3C24.4 29.2 22.6 20.1 23.6 15.1L24.3 11.5L25.6 17C26.3 20 27.7 24.5 28.8 27ZM36.1 25.1C34.1 25.9 33.1 23.8 33.1 18.5V14.5L35.4 19.5C37.4 23.9 37.5 24.6 36.1 25.1ZM102.8 22.9C105.1 27.8 105.5 29.8 105.5 39C105.5 48 105.1 50.3 103 54.9L100.6 60.4L99.2 57C98.4 54.9 98.1 52.1 98.4 49.9C98.9 46.8 98.5 45.6 96.5 43.2C94.6 40.9 94 39 93.9 35.4C93.9 32.7 93.5 29.6 93.1 28.5C92.5 27.1 92.9 25.7 94.6 23.7C95.9 22.1 97.3 19.8 97.6 18.4C98.4 15.1 99.8 16.3 102.8 22.9ZM85.6 20.2C89.5 24.9 92 30.9 92 35.9C92 39.4 91.5 40.6 89.4 42.3C87 44.1 86.8 44.8 87.3 49C87.8 53.2 87.6 54 85.2 56.3C82 59.2 77.7 61.5 73.4 62.4C70.5 63 70.2 62.9 69.7 60C68.5 54.2 58.1 52.5 54 57.6C52 59.9 51 59.2 51 55.3C51 50.2 54.4 43.6 59 40C61.1 38.3 66.2 35.4 70.4 33.5C78.6 29.8 81 26.9 81 20.5C81 16.2 82 16.1 85.6 20.2ZM78.3 24.9C77.6 27.6 75.3 29.4 70 31.4C59 35.6 51.7 42.5 49.6 50.5L48.5 54.8L45 51.9C42.3 49.6 41.9 48.7 42.8 47.8C45 45.6 44.1 42.3 40.3 38.9C35.5 34.8 31.8 29.8 32.7 28.9C33.2 28.5 36.6 27.2 40.4 26.1C47 24.1 47.5 24 51.7 25.6C56.7 27.5 66 27.1 72.5 24.7C78.1 22.7 78.9 22.7 78.3 24.9ZM27.8 39.7C29.1 41.7 30 43.4 29.8 43.5C29.4 43.9 14.8 41.1 14.3 40.6C14.1 40.4 16.1 38.7 18.7 36.7C22.8 33.7 23.6 33.4 24.5 34.7C25.1 35.6 26.5 37.8 27.8 39.7ZM41.7 43.6C42.5 45.8 40 48.1 37.1 47.8C33.9 47.4 32.9 43.3 35.5 41.3C37.5 39.9 40.7 41.1 41.7 43.6ZM95.4 44.6C97.3 46.5 97.4 47.1 95.7 49.4C93.8 52 89.6 51.2 89.2 48.2C88.5 43.8 92.4 41.5 95.4 44.6ZM25.6 45.1C28 45.7 30 46.6 30 47.1C30 47.6 29.1 49.8 27.9 52L25.8 56H19.6C16.3 56 11.8 56.4 9.8 56.9C7.7 57.4 6 57.5 6 57.2C6 55.9 18.5 44 19.8 44C20.5 44 23.1 44.5 25.6 45.1ZM32.4 54.7C31.6 57.9 31 63 31 66.2C31 72.2 33.1 84.6 35 89.5C36 92.2 35.5 91.9 30.6 87L25 81.6V74.5C25 66.7 26.9 58 30 51.9C32.9 46.4 34 47.8 32.4 54.7ZM39.2 65.5C40.1 67.1 43.6 71.6 47 75.5C61.9 92.3 65.8 102.3 61.2 112.3L59.5 116.1L55.6 112.1C52 108.4 51.8 107.8 52.8 105.5C55.8 99.1 53 91.5 43.1 78.5C34.7 67.4 32.2 59.4 35.2 52.3C36.3 49.6 36.4 49.8 37 56C37.4 59.6 38.4 63.8 39.2 65.5ZM45.2 55C49 59 50.2 61.7 47.8 60.6C47.1 60.4 44.8 59.6 42.8 58.9C39.4 57.8 39 57.3 39 54.3C39 50 40.5 50.1 45.2 55ZM112 55.5L116.4 60L112.3 64.2C108.2 68.2 108.1 68.3 105.6 66.7C102.1 64.4 101.7 62 104 57.5C105.1 55.3 106 53 106 52.3C106 50.1 107.4 50.8 112 55.5ZM92 53.8C92 54.3 90.3 57.3 88.3 60.6C78.5 76.4 76.7 82.6 79.4 90.7L81 95.4L77.8 98.7C74 102.6 73.5 102.1 71.9 93.5C70.7 87 72 78.9 75.3 72.5C76.4 70.3 80.2 65.4 83.6 61.5C87.1 57.7 90 54.2 90 53.8C90 53.4 90.5 53 91 53C91.6 53 92 53.4 92 53.8ZM97.3 58C98.3 60.8 100.7 64.6 102.7 66.6L106.3 70.2L103.7 72.7L101.2 75.3L98.8 72.7C97.4 71.2 95.8 68.3 95.2 66.2C93.9 61.8 93.6 53 94.8 53C95.2 53 96.3 55.3 97.3 58ZM67.2 59.3C67.6 60 68 61.6 68 62.9C68 65.1 68.3 65.2 71.8 64.7C73.8 64.4 76.4 63.8 77.4 63.4C79.1 62.8 79 63.2 76.7 66.1C75.3 68 73.4 71.3 72.5 73.4C71.4 76.1 70.5 77 69.2 76.6C68.3 76.4 65.8 75.9 63.8 75.5C61.7 75.2 60 74.7 60 74.4C60 74.1 60.9 72.7 62 71.3C64.9 67.5 64.7 61.7 61.5 59.2C59.8 57.9 59.4 57 60.2 56.7C61.9 56.2 66.2 57.8 67.2 59.3ZM24.5 59.7C24.1 60.7 23.5 65.5 23.3 70.3L22.7 79.2L13.4 69.9C8.3 64.8 4.2 60.5 4.4 60.3C5.2 59.5 14 58.2 19.4 58.1C24.6 58 25.1 58.2 24.5 59.7ZM59.8 60.6C61.2 61.5 62 63.2 62 64.9C62 67.8 58.7 73 56.8 73C55.4 73 48 65.3 48 63.8C48 62.9 48.3 62.9 49.1 63.7C49.8 64.4 51 63.9 53 61.9C56.3 58.6 56.8 58.5 59.8 60.6ZM43.1 61.2C43.9 61.9 45.9 64.5 47.4 66.8C48.9 69.2 52.3 72.5 55 74.2L59.8 77.2L58.2 80.1L56.5 83L51.2 77.3C43 68.3 38 60 40.8 60C41.3 60 42.3 60.6 43.1 61.2ZM91.9 69.6C90.1 71.7 83 75.3 83 74C83 73.4 84.9 70.1 87.3 66.6L91.5 60.1L92.3 64.1C92.9 66.9 92.8 68.6 91.9 69.6ZM42.6 81.3C51.4 93 53.9 100 50.7 104.4C49.5 106 49 105.7 44.3 100.7C40.1 96.3 38.7 93.9 36.7 87.3C35.3 82.9 33.8 76.4 33.5 72.9L32.8 66.5L35 70.3C36.1 72.5 39.6 77.4 42.6 81.3ZM97.1 74.1L99.3 77.2L91.4 85.1C87.1 89.4 83.2 93 82.8 93C81.5 93 79.8 84.8 80.5 81.4C81 78.7 81.9 77.7 85.3 76.1C87.6 75.1 90.4 73.5 91.5 72.6C94.2 70.5 94.6 70.6 97.1 74.1ZM67 78.4C69.5 78.9 69.6 79.1 69.6 87.7C69.6 93.4 70.2 97.8 71.2 100.1L72.8 103.8L68.7 107.9L64.5 111.9V104.6C64.5 98.4 64 96.4 61.3 91.1L58.1 84.8L60 80.9C61.1 78.8 62.6 77.2 63.3 77.4C63.9 77.7 65.6 78.1 67 78.4Z" fill="white"/>
<path d="M66.5 39.8999C64.3 40.8999 61.4 42.9999 60 44.4999L57.5 47.2999L62.3 46.7999C65.7 46.3999 67.7 45.4999 69.5 43.5999C72.5 40.2999 76.3 40.1999 79.5 43.4999C82.4 46.2999 82.5 47.6999 80.5 52.7999L79 56.4999L81 54.0999C85.4 48.8999 84.5 42.7999 79 39.7999C74.7 37.4999 71.6 37.4999 66.5 39.8999ZM67.4 42.4999C67 43.2999 66 43.9999 65.1 43.9999C63.7 43.8999 63.8 43.6999 65.4 42.4999C67.9 40.5999 68.1 40.5999 67.4 42.4999Z" fill="white"/>
<path d="M42.2 28.8999C37.6 30.3999 37.1 30.7999 38.4 31.8999C40.1 33.2999 46.8 33.6999 51.8 32.5999C55 31.8999 56.3 29.9999 53.6 29.9999C52.9 29.9999 51.7 29.2999 51 28.4999C49.5 26.6999 49 26.6999 42.2 28.8999ZM49.5 29.9999C49.9 30.5999 48.8 30.9999 46.8 30.8999C43.7 30.7999 43.6 30.7999 46 29.9999C47.4 29.5999 48.6 29.1999 48.7 29.0999C48.8 28.9999 49.2 29.3999 49.5 29.9999Z" fill="white"/>
</svg>
