<?xml version="1.0" standalone="no"?>
<!DOCTYPE svg PUBLIC "-//W3C//DTD SVG 20010904//EN"
 "http://www.w3.org/TR/2001/REC-SVG-20010904/DTD/svg10.dtd">
<svg version="1.0" xmlns="http://www.w3.org/2000/svg"
 width="120.000000pt" height="82.000000pt" viewBox="0 0 120.000000 122.000000"
 preserveAspectRatio="xMidYMid meet">

<g transform="translate(0.000000,122.000000) scale(0.100000,-0.100000)"
fill="#000000" stroke="none">
<path d="M243 1167 c-24 -53 -35 -160 -23 -227 6 -34 10 -63 8 -64 -42 -28
-108 -79 -122 -95 -19 -21 -19 -21 20 -21 l39 0 -83 -83 -82 -82 300 -300 300
-300 297 297 298 298 -58 58 -57 58 0 81 c0 99 -27 193 -70 246 -37 44 -50 47
-50 10 0 -16 -9 -43 -21 -62 l-21 -35 -31 38 c-29 33 -83 76 -98 76 -3 0 -4
-15 -1 -32 4 -31 -1 -28 -94 64 l-99 98 -106 -106 -106 -106 -17 48 c-9 26
-16 58 -16 71 0 38 -17 26 -30 -22 -7 -27 -10 -68 -7 -100 3 -31 2 -53 -2 -50
-14 8 -43 127 -50 200 -6 65 -7 68 -18 42z m519 -188 c-14 -14 -117 -39 -159
-39 -23 0 -61 7 -83 16 -32 13 -49 14 -80 6 -22 -5 -40 -7 -40 -4 0 4 44 51
97 104 l98 98 87 -87 c48 -48 84 -90 80 -94z m-474 -59 c10 -25 32 -60 47 -78
27 -32 27 -33 9 -47 -27 -20 -36 -15 -67 42 -33 61 -51 152 -41 202 l7 36 13
-55 c7 -30 21 -75 32 -100z m73 19 c-20 -8 -30 13 -30 66 l0 40 23 -50 c20
-44 21 -51 7 -56z m667 22 c23 -49 27 -69 27 -161 0 -90 -4 -113 -25 -159
l-24 -55 -14 34 c-8 21 -11 49 -8 71 5 31 1 43 -19 67 -19 23 -25 42 -26 78 0
27 -4 58 -8 69 -6 14 -2 28 15 48 13 16 27 39 30 53 8 33 22 21 52 -45z m-172
27 c39 -47 64 -107 64 -157 0 -35 -5 -47 -26 -64 -24 -18 -26 -25 -21 -67 5
-42 3 -50 -21 -73 -32 -29 -75 -52 -118 -61 -29 -6 -32 -5 -37 24 -12 58 -116
75 -157 24 -20 -23 -30 -16 -30 23 0 51 34 117 80 153 21 17 72 46 114 65 82
37 106 66 106 130 0 43 10 44 46 3z m-73 -47 c-7 -27 -30 -45 -83 -65 -110
-42 -183 -111 -204 -191 l-11 -43 -35 29 c-27 23 -31 32 -22 41 22 22 13 55
-25 89 -48 41 -85 91 -76 100 5 4 39 17 77 28 66 20 71 21 113 5 50 -19 143
-15 208 9 56 20 64 20 58 -2z m-505 -148 c13 -20 22 -37 20 -38 -4 -4 -150 24
-155 29 -2 2 18 19 44 39 41 30 49 33 58 20 6 -9 20 -31 33 -50z m139 -39 c8
-22 -17 -45 -46 -42 -32 4 -42 45 -16 65 20 14 52 2 62 -23z m537 -10 c19 -19
20 -25 3 -48 -19 -26 -61 -18 -65 12 -7 44 32 67 62 36z m-698 -5 c24 -6 44
-15 44 -20 0 -5 -9 -27 -21 -49 l-21 -40 -62 0 c-33 0 -78 -4 -98 -9 -21 -5
-38 -6 -38 -3 0 13 125 132 138 132 7 0 33 -5 58 -11z m68 -96 c-8 -32 -14
-83 -14 -115 0 -60 21 -184 40 -233 10 -27 5 -24 -44 25 l-56 54 0 71 c0 78
19 165 50 226 29 55 40 41 24 -28z m68 -108 c9 -16 44 -61 78 -100 149 -168
188 -268 142 -368 l-17 -38 -39 40 c-36 37 -38 43 -28 66 30 64 2 140 -97 270
-84 111 -109 191 -79 262 11 27 12 25 18 -37 4 -36 14 -78 22 -95z m60 105
c38 -40 50 -67 26 -56 -7 2 -30 10 -50 17 -34 11 -38 16 -38 46 0 43 15 42 62
-7z m668 -5 l44 -45 -41 -42 c-41 -40 -42 -41 -67 -25 -35 23 -39 47 -16 92
11 22 20 45 20 52 0 22 14 15 60 -32z m-200 17 c0 -5 -17 -35 -37 -68 -98
-158 -116 -220 -89 -301 l16 -47 -32 -33 c-38 -39 -43 -34 -59 52 -12 65 1
146 34 210 11 22 49 71 83 110 35 38 64 73 64 77 0 4 5 8 10 8 6 0 10 -4 10
-8z m53 -42 c10 -28 34 -66 54 -86 l36 -36 -26 -25 -25 -26 -24 26 c-14 15
-30 44 -36 65 -13 44 -16 132 -4 132 4 0 15 -23 25 -50z m-301 -13 c4 -7 8
-23 8 -36 0 -22 3 -23 38 -18 20 3 46 9 56 13 17 6 16 2 -7 -27 -14 -19 -33
-52 -42 -73 -11 -27 -20 -36 -33 -32 -9 2 -34 7 -54 11 -21 3 -38 8 -38 11 0
3 9 17 20 31 29 38 27 96 -5 121 -17 13 -21 22 -13 25 17 5 60 -11 70 -26z
m-427 -4 c-4 -10 -10 -58 -12 -106 l-6 -89 -93 93 c-51 51 -92 94 -90 96 8 8
96 21 150 22 52 1 57 -1 51 -16z m353 -9 c14 -9 22 -26 22 -43 0 -29 -33 -81
-52 -81 -14 0 -88 77 -88 92 0 9 3 9 11 1 7 -7 19 -2 39 18 33 33 38 34 68 13z
m-167 -6 c8 -7 28 -33 43 -56 15 -24 49 -57 76 -74 l48 -30 -16 -29 -17 -29
-53 57 c-82 90 -132 173 -104 173 5 0 15 -6 23 -12z m488 -84 c-18 -21 -89
-57 -89 -44 0 6 19 39 43 74 l42 65 8 -40 c6 -28 5 -45 -4 -55z m-493 -117
c88 -117 113 -187 81 -231 -12 -16 -17 -13 -64 37 -42 44 -56 68 -76 134 -14
44 -29 109 -32 144 l-7 64 22 -38 c11 -22 46 -71 76 -110z m545 72 l22 -31
-79 -79 c-43 -43 -82 -79 -86 -79 -13 0 -30 82 -23 116 5 27 14 37 48 53 23
10 51 26 62 35 27 21 31 20 56 -15z m-301 -43 c25 -5 26 -7 26 -93 0 -57 6
-101 16 -124 l16 -37 -41 -41 -42 -40 0 73 c0 62 -5 82 -32 135 l-32 63 19 39
c11 21 26 37 33 35 6 -3 23 -7 37 -10z"/>
<path d="M665 791 c-22 -10 -51 -31 -65 -46 l-25 -28 48 5 c34 4 54 13 72 32
30 33 68 34 100 1 29 -28 30 -42 10 -93 l-15 -37 20 24 c44 52 35 113 -20 143
-43 23 -74 23 -125 -1z m9 -26 c-4 -8 -14 -15 -23 -15 -14 1 -13 3 3 15 25 19
27 19 20 0z"/>
<path d="M422 901 c-46 -15 -51 -19 -38 -30 17 -14 84 -18 134 -7 32 7 45 26
18 26 -7 0 -19 7 -26 15 -15 18 -20 18 -88 -4z m73 -11 c4 -6 -7 -10 -27 -9
-31 1 -32 1 -8 9 14 4 26 8 27 9 1 1 5 -3 8 -9z"/>
</g>
</svg>
